<svg width="0" height="0" class="hidden">
  <symbol xmlns="http://www.w3.org/2000/svg" fill="#666666" viewBox="0 -960 960 960" id="google-keyboard">
    <path d="M160-200q-33 0-56.5-23.5T80-280v-400q0-33 23.5-56.5T160-760h640q33 0 56.5 23.5T880-680v400q0 33-23.5 56.5T800-200H160Zm160-120h320v-80H320v80ZM200-440h80v-80h-80v80Zm120 0h80v-80h-80v80Zm120 0h80v-80h-80v80Zm120 0h80v-80h-80v80Zm120 0h80v-80h-80v80ZM200-560h80v-80h-80v80Zm120 0h80v-80h-80v80Zm120 0h80v-80h-80v80Zm120 0h80v-80h-80v80Zm120 0h80v-80h-80v80Z"></path>
  </symbol>
  <symbol id="google-lens" version="1.1" xml:space="preserve" xmlns="http://www.w3.org/2000/svg" xmlns:xlink="http://www.w3.org/1999/xlink" viewBox="0 0 150 150">
    <g>
      <path style="fill:#FBBC04;" d="M94.3,43.6c6.6,0,12.1,5.4,12.1,12.1v9.7h12.1v-9.7c0-13.3-10.8-24.2-24.2-24.2h-9.7v12.1H94.3z"></path>
      <path style="fill:#EA4335;" d="M43.6,55.7c0-6.6,5.4-12.1,12.1-12.1h9.7V31.5h-9.7c-13.3,0-24.2,10.8-24.2,24.2v9.7h12.1V55.7z"></path>
      <path style="fill:#1A73E8;" d="M55.7,106.4c-6.6,0-12.1-5.4-12.1-12.1v-9.7H31.5v9.7c0,13.3,10.8,24.2,24.2,24.2h9.7v-12.1L55.7,106.4   L55.7,106.4z"></path>
      <circle style="fill:#4285F4;" cx="75" cy="75" id="XMLID_3_" r="16.9"></circle>
      <g>
        <circle style="fill:#34A853;" cx="104" cy="104" r="9.7"></circle>
      </g>
    </g>
  </symbol>
  <symbol xmlns="http://www.w3.org/2000/svg" fill="#5f6368" viewBox="0 -960 960 960" id="google-menu">
    <path d="M240-160q-33 0-56.5-23.5T160-240q0-33 23.5-56.5T240-320q33 0 56.5 23.5T320-240q0 33-23.5 56.5T240-160Zm240 0q-33 0-56.5-23.5T400-240q0-33 23.5-56.5T480-320q33 0 56.5 23.5T560-240q0 33-23.5 56.5T480-160Zm240 0q-33 0-56.5-23.5T640-240q0-33 23.5-56.5T720-320q33 0 56.5 23.5T800-240q0 33-23.5 56.5T720-160ZM240-400q-33 0-56.5-23.5T160-480q0-33 23.5-56.5T240-560q33 0 56.5 23.5T320-480q0 33-23.5 56.5T240-400Zm240 0q-33 0-56.5-23.5T400-480q0-33 23.5-56.5T480-560q33 0 56.5 23.5T560-480q0 33-23.5 56.5T480-400Zm240 0q-33 0-56.5-23.5T640-480q0-33 23.5-56.5T720-560q33 0 56.5 23.5T800-480q0 33-23.5 56.5T720-400ZM240-640q-33 0-56.5-23.5T160-720q0-33 23.5-56.5T240-800q33 0 56.5 23.5T320-720q0 33-23.5 56.5T240-640Zm240 0q-33 0-56.5-23.5T400-720q0-33 23.5-56.5T480-800q33 0 56.5 23.5T560-720q0 33-23.5 56.5T480-640Zm240 0q-33 0-56.5-23.5T640-720q0-33 23.5-56.5T720-800q33 0 56.5 23.5T800-720q0 33-23.5 56.5T720-640Z"></path>
  </symbol>
  <symbol id="google-mic" version="1.1" xml:space="preserve" xmlns="http://www.w3.org/2000/svg" xmlns:xlink="http://www.w3.org/1999/xlink" viewBox="0 0 150 150">
    <g>
      <g id="g17480" transform="translate(646.3034,236.3789)">
        <path style="fill:#34A853;" d="M-571.3-147.3c7.9,0,14.2-6.4,14.2-14.2l0-33.2c0-7.9-6.4-14.2-14.2-14.2    c-7.9,0-14.2,6.4-14.2,14.2v33.2C-585.5-153.7-579.1-147.3-571.3-147.3" id="path17482"></path>
      </g>
      <g id="g17484" transform="translate(645.4803,233.1492)">
        <path style="fill:#FBBC04;" d="M-575.2-125.5L-575.2-125.5v14.9h9.5v-14.8c-1.5,0.2-3.1,0.2-4.7,0.2    C-572.1-125.1-573.6-125.2-575.2-125.5" id="path17486"></path>
      </g>
      <g id="g17488" transform="translate(643.3809,235.9115)">
        <path style="fill:#EA4335;" d="M-585.2-144.1c-4.2-4.3-6.9-9.5-6.9-16.6h-9.5c0,9.5,3.7,17.3,9.7,23.3l0.1-0.1    c0,0,0,0-0.1-0.1L-585.2-144.1z" id="path17490"></path>
      </g>
      <g id="g17492" transform="translate(650.4081,238.79)">
        <path style="fill:#4285F4;" d="M-551.7-163.6c0,11.9-10.5,23.6-23.7,23.6c-6.6,0-12.5-2.7-16.8-7l-0.1,0.1l-6.6,6.6    c0,0,0,0,0.1,0.1c4.9,4.9,11.4,8.2,18.7,9.3c1.6,0.2,3.2,0.4,4.8,0.4c1.6,0,3.2,0,4.7-0.2c16.1-2.3,28.4-16.1,28.4-32.7H-551.7z" id="path17494"></path>
      </g>
    </g>
  </symbol>
  <symbol xmlns="http://www.w3.org/2000/svg" fill="#9aa0a6" viewBox="0 -960 960 960" id="google-search">
    <path d="M784-120 532-372q-30 24-69 38t-83 14q-109 0-184.5-75.5T120-580q0-109 75.5-184.5T380-840q109 0 184.5 75.5T640-580q0 44-14 83t-38 69l252 252-56 56ZM380-400q75 0 127.5-52.5T560-580q0-75-52.5-127.5T380-760q-75 0-127.5 52.5T200-580q0 75 52.5 127.5T380-400Z"></path>
  </symbol>
  <symbol id="custom-symbol" version="1.1" xml:space="preserve" xmlns="http://www.w3.org/2000/svg" xmlns:xlink="http://www.w3.org/1999/xlink" viewBox="0 0 150 150">
    <g>
      <path style="fill:#FBC02D;" d="M94.3,43.6c6.6,0,12.1,5.4,12.1,12.1v9.7h12.1v-9.7c0-13.3-10.8-24.2-24.2-24.2h-9.7v12.1H94.3z"/>
      <path style="fill:#E53935;" d="M43.6,55.7c0-6.6,5.4-12.1,12.1-12.1h9.7V31.5h-9.7c-13.3,0-24.2,10.8-24.2,24.2v9.7h12.1V55.7z"/>
      <path style="fill:#1A73E8;" d="M55.7,106.4c-6.6,0-12.1-5.4-12.1-12.1v-9.7H31.5v9.7c0,13.3,10.8,24.2,24.2,24.2h9.7v-12.1L55.7,106.4   L55.7,106.4z"/>
      <circle style="fill:#4285F4;" cx="75" cy="75" id="XMLID_3_" r="16.9"/>
      <g>
        <circle style="fill:#4CAF50;" cx="104" cy="104" r="9.7"/>
      </g>
    </g>
  </symbol>
</svg>
